<?xml version="1.0" encoding="UTF-8"?>
<!DOCTYPE svg PUBLIC "-//W3C//DTD SVG 1.1//EN" "http://www.w3.org/Graphics/SVG/1.1/DTD/svg11.dtd">
<svg version="1.1" xmlns="http://www.w3.org/2000/svg" xmlns:xlink="http://www.w3.org/1999/xlink" x="0" y="0" width="150" height="150" viewBox="0, 0, 150, 150">
  <g id="Layer_1">
    <path d="M78.605,19.498 C89.211,26.729 95.58,35.856 107.772,42.979 C119.949,50.071 137.994,55.175 145.616,66.191 C153.238,77.208 150.451,94.092 143.622,109.913 C136.778,125.703 125.906,140.385 112.336,141.697 C98.75,142.978 82.451,130.934 72.847,119.92 C63.227,108.875 60.334,98.921 46.451,93.523 C32.614,88.14 7.833,87.329 2.305,80.336 C-3.238,73.389 10.441,60.198 19.62,46.098 C28.784,31.967 33.479,16.834 43.264,11.928 C53.048,7.022 67.983,12.312 78.605,19.498" fill="#BB004B"/>
  </g>
</svg>
