<?xml version="1.0" encoding="UTF-8"?>
<!DOCTYPE svg PUBLIC "-//W3C//DTD SVG 1.1//EN" "http://www.w3.org/Graphics/SVG/1.1/DTD/svg11.dtd">
<svg version="1.1" xmlns="http://www.w3.org/2000/svg" xmlns:xlink="http://www.w3.org/1999/xlink" x="0" y="0" width="150" height="160" viewBox="0, 0, 150, 160">
  <g id="Layer_1">
    <path d="M115.179,15.271 C126.556,23.42 136.68,33.449 141.161,45.672 C145.675,57.895 144.578,72.312 143.575,90.27 C142.54,108.229 141.632,129.729 130.787,143.237 C119.975,156.745 99.227,162.261 80.767,159.159 C62.307,156.056 46.072,144.334 37.704,130.011 C29.304,115.72 28.772,98.858 22.503,83.031 C16.267,67.203 4.325,52.41 5.861,40.281 C7.397,28.121 22.409,18.624 36.764,11.416 C51.118,4.239 64.814,-0.65 77.977,0.07 C91.172,0.791 103.803,7.091 115.179,15.271" fill="#FA7268" id="blob-haikei_(1)"/>
  </g>
</svg>
