<?xml version="1.0" encoding="UTF-8"?>
<!DOCTYPE svg PUBLIC "-//W3C//DTD SVG 1.1//EN" "http://www.w3.org/Graphics/SVG/1.1/DTD/svg11.dtd">
<svg version="1.1" xmlns="http://www.w3.org/2000/svg" xmlns:xlink="http://www.w3.org/1999/xlink" x="0" y="0" width="150" height="29" viewBox="0, 0, 150, 29">
  <g id="Layer_1">
    <path d="M0,27.36 L3.583,25.217 C7.167,23.075 14.333,18.789 21.467,18.707 C28.617,18.625 35.717,22.745 42.867,25.349 C50,27.97 57.167,29.058 64.3,29.008 C71.45,28.959 78.55,27.739 85.7,25.679 C92.833,23.619 100,20.718 107.133,21.295 C114.283,21.871 121.383,25.926 128.533,27.409 C135.667,28.893 142.833,27.805 146.417,27.245 L150,26.701 L150,-0 L146.417,-0 C142.833,-0 135.667,-0 128.533,-0 C121.383,-0 114.283,-0 107.133,-0 C100,-0 92.833,-0 85.7,-0 C78.55,-0 71.45,-0 64.3,-0 C57.167,-0 50,-0 42.867,-0 C35.717,-0 28.617,-0 21.467,-0 C14.333,-0 7.167,-0 3.583,-0 L0,-0 z" fill="#C62368" id="wave-haikei"/>
  </g>
</svg>
