<?xml version="1.0" encoding="UTF-8"?>
<!DOCTYPE svg PUBLIC "-//W3C//DTD SVG 1.1//EN" "http://www.w3.org/Graphics/SVG/1.1/DTD/svg11.dtd">
<svg version="1.1" xmlns="http://www.w3.org/2000/svg" xmlns:xlink="http://www.w3.org/1999/xlink" x="0" y="0" width="150" height="150" viewBox="0, 0, 150, 150">
  <g id="Layer_1">
    <path d="M75,4.131 C34.854,4.131 2.338,36.647 2.338,76.793 C2.338,108.945 23.138,136.103 52.021,145.73 C55.654,146.366 57.016,144.186 57.016,142.279 C57.016,140.553 56.925,134.831 56.925,128.746 C38.669,132.106 33.946,124.295 32.493,120.208 C31.676,118.119 28.133,111.67 25.045,109.944 C22.502,108.582 18.869,105.221 24.954,105.131 C30.676,105.04 34.764,110.399 36.126,112.578 C42.666,123.568 53.111,120.48 57.289,118.573 C57.925,113.85 59.832,110.671 61.921,108.854 C45.754,107.038 28.86,100.771 28.86,72.978 C28.86,65.076 31.676,58.536 36.308,53.45 C35.581,51.633 33.038,44.186 37.034,34.195 C37.034,34.195 43.12,32.287 57.016,41.643 C62.829,40.008 69.005,39.19 75.182,39.19 C81.358,39.19 87.534,40.008 93.347,41.643 C107.244,32.196 113.329,34.195 113.329,34.195 C117.325,44.186 114.782,51.633 114.056,53.45 C118.688,58.536 121.503,64.985 121.503,72.978 C121.503,100.862 104.519,107.038 88.352,108.854 C90.986,111.125 93.256,115.485 93.256,122.297 C93.256,132.015 93.165,139.826 93.165,142.279 C93.165,144.186 94.528,146.457 98.161,145.73 C126.862,136.103 147.662,108.854 147.662,76.793 C147.662,36.647 115.146,4.131 75,4.131 z" fill="#FFFFFF" id="Octicons-mark-github"/>
  </g>
</svg>
