<?xml version="1.0" encoding="UTF-8"?>
<!DOCTYPE svg PUBLIC "-//W3C//DTD SVG 1.1//EN" "http://www.w3.org/Graphics/SVG/1.1/DTD/svg11.dtd">
<svg version="1.1" xmlns="http://www.w3.org/2000/svg" xmlns:xlink="http://www.w3.org/1999/xlink" x="0" y="0" width="150" height="150" viewBox="0, 0, 150, 150">
  <g id="Layer_1">
    <path d="M139.757,4.01 L10.242,4.01 C7.349,4.01 5.004,6.354 5.004,9.247 L5.004,138.762 C5.004,141.656 7.349,144 10.242,144 L139.758,144 C142.652,144 144.996,141.655 144.996,138.762 L144.996,9.247 C144.995,6.354 142.65,4.01 139.757,4.01 z M42.196,119.204 C42.196,121.133 40.634,122.695 38.705,122.695 L24.725,122.695 C22.798,122.695 21.234,121.133 21.234,119.204 L21.234,58.104 C21.234,56.174 22.798,54.612 24.725,54.612 L38.705,54.612 C40.634,54.612 42.196,56.174 42.196,58.104 L42.196,119.204 z M42.196,40.376 C42.196,42.305 40.634,43.868 38.705,43.868 L24.725,43.868 C22.798,43.868 21.234,42.305 21.234,40.376 L21.234,27.963 C21.234,26.034 22.798,24.471 24.725,24.471 L38.705,24.471 C40.634,24.471 42.196,26.034 42.196,27.963 L42.196,40.376 z M128.765,119.204 C128.765,121.133 127.201,122.695 125.273,122.695 L111.294,122.695 C109.365,122.695 107.802,121.133 107.802,119.204 L107.802,93.405 C107.802,84.85 107.356,79.317 106.458,76.805 C105.562,74.293 104.108,72.341 102.093,70.95 C100.079,69.557 97.655,68.862 94.82,68.862 C91.189,68.862 87.931,69.857 85.047,71.845 C82.163,73.836 80.186,76.47 79.116,79.752 C78.048,83.035 77.513,89.103 77.513,97.955 L77.513,119.204 C77.513,121.133 75.949,122.695 74.022,122.695 L60.042,122.695 C58.115,122.695 56.551,121.133 56.551,119.204 L56.551,58.104 C56.551,56.174 58.115,54.612 60.042,54.612 L72.529,54.612 C74.458,54.612 76.021,56.174 76.021,58.104 L76.021,62.758 C76.021,64.687 76.966,64.998 78.262,63.572 C84.785,56.405 92.741,52.821 102.132,52.821 C106.757,52.821 110.983,53.653 114.814,55.319 C118.643,56.984 121.54,59.111 123.505,61.697 C125.469,64.282 126.838,67.217 127.608,70.499 C128.377,73.781 128.765,78.481 128.765,84.599 L128.765,119.204 L128.765,119.204 z" fill="#FFFFFF"/>
  </g>
</svg>
