
        <svg xmlns="http://www.w3.org/2000/svg" xmlns:xlink="http://www.w3.org/1999/xlink" version="1.1" width="3039.7595214805324" 
        height="3276.3417746800483" viewBox="0 0 3039.7595214805324 3276.3417746800483">
			
			<g transform="scale(13.817088734002422) translate(10, 10)">
				<defs id="SvgjsDefs2909"></defs><g id="SvgjsG2910" featureKey="symbolFeature-0" transform="matrix(1.0526315789473684,0,0,1.0526315789473684,47.73368408805446,-12.821052952816611)" fill="#111111"><g xmlns="http://www.w3.org/2000/svg"><circle fill="none" cx="49.651" cy="72.829" r="1.847"></circle><path fill="none" d="M6.159,65.021h86.985V15.996H6.159V65.021z M56.586,46.886l11.51-4.933v-0.062l-11.51-4.932V33.67   l14.891,6.825v2.854l-14.891,6.825V46.886z M51.652,28.924h3.133l-6.639,22.49h-3.132h-0.001L51.652,28.924z M27.825,43.256v-2.668   l14.89-6.918v3.289l-11.26,4.932v0.062l11.26,4.933v3.288L27.825,43.256L27.825,43.256z"></path><path d="M94.318,12.18h-43.88h-1.495H5.063c-1.563,0-2.91,1.188-2.91,2.752v54.092v0.188v5.013v0.313   c0,1.563,1.347,2.877,2.91,2.877h35.146c-0.041,0.896-0.321,4.753-2.155,6.623c-1.445,1.474-3.453,2.854-2.669,3.563   c0.19,0.436,1.091,0.688,3.14,0.688c4.521,0,9.416,0,11.208,0c0.453,0,0.707,0,0.707,0c1.791,0,6.688,0,11.207,0   c2.334,0,3.15-0.382,3.158-0.953h-0.08v-0.188h-0.082c-0.104-0.771-1.662-1.907-2.84-3.105c-1.834-1.87-2.113-5.727-2.154-6.623   h34.674c1.564,0,2.83-1.313,2.83-2.877v-0.314v-5.012v-0.189V14.934C97.15,13.368,95.883,12.18,94.318,12.18z M49.651,74.676   c-1.021,0-1.847-0.824-1.847-1.846s0.826-1.848,1.847-1.848c1.02,0,1.847,0.826,1.847,1.848   C51.499,73.852,50.671,74.676,49.651,74.676z M93.145,65.021H6.159V15.996h86.985V65.021z"></path><polygon points="42.715,46.886 31.455,41.953 31.455,41.891 42.715,36.959 42.715,33.67 27.825,40.588 27.825,43.256    27.825,43.257 42.715,50.174  "></polygon><polygon points="48.146,51.414 54.785,28.924 51.652,28.924 45.013,51.414 45.014,51.414  "></polygon><polygon points="71.477,40.495 56.586,33.67 56.586,36.959 68.096,41.891 68.096,41.953 56.586,46.886 56.586,50.174    71.477,43.349  "></polygon></g></g><g id="SvgjsG2911" featureKey="dFhhLb-0" transform="matrix(2.9009339638697917,0,0,2.9009339638697917,-2.436786355571127,85.32127569208474)" fill="#111111"><path d="M1.22 5.0600000000000005 l-0.2 0 l0.2 0 z M11.32 5.08 l0.22 0 l0 14.74 l0.18 0.18 l-3.58 0 l0.18 -0.18 l0 -3.62 l0.1 -3.58 l-2.14 2.38 l-2.16 -2.38 l0.12 3.66 l0 3.54 l0.18 0.18 l-3.58 0 l0.18 -0.18 l0 -14.76 l0.2 0 l5.06 5.68 z M20.26 19.82 l-0.58 -2.24 l-2.98 0 l-0.56 2.24 l0.18 0.18 l-3.72 0 l0.22 -0.18 l3.64 -14.38 l-0.18 -0.18 l3.8 0 l-0.2 0.18 l3.7 14.38 l0.18 0.18 l-3.7 0 z M18.200000000000003 9.88 l-0.04 0 l-0.78 4.68 l1.6 0 z M24.240000000000002 5.24 l8.84 0 l0 3.1 l-2.78 0 l0 11.48 l0.18 0.18 l-3.58 0 l0.18 -0.18 l0 -11.48 l-2.84 0 l0 -3.1 z M43.2 5.42 l-0.02 0 l0 14.4 l0.18 0.18 l-3.58 0 l0.18 -0.18 l0 -6.08 l-2.3 0 l0 6.08 l0.18 0.18 l-3.58 0 l0.18 -0.18 l0 -14.42 l-0.18 -0.16 l3.58 0 l-0.18 0.18 l0 5.1 l2.3 0 l0 -5.12 l-0.16 -0.16 l3.58 0 z M48.5 5.42 l0 14.4 l0.2 0.18 l-3.66 0 l0.2 -0.18 l0 -14.4 l-0.2 -0.18 l3.66 0 z M57.24 19.82 l-0.58 -2.24 l-2.98 0 l-0.56 2.24 l0.18 0.18 l-3.72 0 l0.22 -0.18 l3.64 -14.38 l-0.18 -0.18 l3.8 0 l-0.2 0.18 l3.7 14.38 l0.18 0.18 l-3.7 0 z M55.18000000000001 9.88 l-0.04 0 l-0.78 4.68 l1.6 0 z M65.84 11 c1.86 0.64 4.04 1.84 3.94 4.54 c-0.08 2.06 -1.04 3.16 -1.8 3.7 c-1.94 1.38 -4.76 0.86 -6.6 -0.22 l0.98 -3.14 c1.3 0.56 3.78 1.64 4.18 -0.2 c0.4 -1.76 -5.28 -1.58 -5.12 -6.24 c0.14 -4.02 4.24 -5.14 7.74 -3.6 l-1.04 2.88 c-0.92 -0.4 -3.26 -0.86 -3.46 0.78 c-0.1 0.72 0.52 1.2 1.18 1.5 z"></path></g><g id="SvgjsG2912" featureKey="dFhhLb-1" transform="matrix(4.176820164935195,0,0,4.176820164935195,-3.508527584214684,132.86529020442748)" fill="#111111"><path d="M9.84 20.28 l-5.76 -6.62 l0 6.14 l0.18 0.18 l-3.42 0 l0.18 -0.18 l0 -14.7 l0.2 0 l5.76 7.44 l0 -7.12 l-0.2 -0.18 l3.44 0 l-0.2 0.18 l0 14.86 l-0.18 0 z M12.040000000000001 5.24 l6.62 0 l0.16 -0.18 l0 3.58 l-0.18 -0.18 l-3.38 0 l0 2.54 l3.1 0 l0.18 -0.18 l0 3.6 l-0.18 -0.2 l-3.1 0 l0 2.56 l3.68 0 l0.18 -0.18 l0 3.58 l-0.18 -0.18 l-7.08 0 l0.18 -0.18 l0 -14.58 z M25.42 15.379999999999999 l0.04 0 l0.94 -5.66 l1.08 -4.28 l-0.18 -0.18 l3.72 0 l-0.22 0.18 l-3.64 14.38 l0.18 0.18 l-3.8 0 l0.2 -0.18 l-3.7 -14.38 l-0.18 -0.18 l3.7 0 l-0.2 0.18 l1.1 4.28 z M32.04 5.24 l6.62 0 l0.16 -0.18 l0 3.58 l-0.18 -0.18 l-3.38 0 l0 2.54 l3.1 0 l0.18 -0.18 l0 3.6 l-0.18 -0.2 l-3.1 0 l0 2.56 l3.68 0 l0.18 -0.18 l0 3.58 l-0.18 -0.18 l-7.08 0 l0.18 -0.18 l0 -14.58 z M44.78 11 c1.86 0.64 4.04 1.84 3.94 4.54 c-0.08 2.06 -1.04 3.16 -1.8 3.7 c-1.94 1.38 -4.76 0.86 -6.6 -0.22 l0.98 -3.14 c1.3 0.56 3.78 1.64 4.18 -0.2 c0.4 -1.76 -5.28 -1.58 -5.12 -6.24 c0.14 -4.02 4.24 -5.14 7.74 -3.6 l-1.04 2.88 c-0.92 -0.4 -3.26 -0.86 -3.46 0.78 c-0.1 0.72 0.52 1.2 1.18 1.5 z"></path></g>
			</g>
		</svg>
	