<?xml version="1.0" encoding="UTF-8"?>
<!DOCTYPE svg PUBLIC "-//W3C//DTD SVG 1.1//EN" "http://www.w3.org/Graphics/SVG/1.1/DTD/svg11.dtd">
<svg version="1.1" xmlns="http://www.w3.org/2000/svg" xmlns:xlink="http://www.w3.org/1999/xlink" x="0" y="0" width="150" height="27" viewBox="0, 0, 150, 27">
  <g id="Layer_1">
    <path d="M0,0.838 L3.563,1.806 C7.141,2.759 14.266,4.696 21.406,4.774 C28.547,4.853 35.672,3.072 42.813,3.54 C49.953,4.009 57.078,6.727 64.25,6.649 C71.406,6.571 78.594,3.697 85.75,3.181 C92.922,2.666 100.047,4.478 107.188,4.15 C114.328,3.806 121.453,1.306 128.594,0.416 C135.734,-0.459 142.859,0.26 146.438,0.635 L150,0.994 L150,27.863 L146.438,27.863 C142.859,27.863 135.734,27.863 128.594,27.863 C121.453,27.863 114.328,27.863 107.188,27.863 C100.047,27.863 92.922,27.863 85.75,27.863 C78.594,27.863 71.406,27.863 64.25,27.863 C57.078,27.863 49.953,27.863 42.813,27.863 C35.672,27.863 28.547,27.863 21.406,27.863 C14.266,27.863 7.141,27.863 3.563,27.863 L0,27.863 z" fill="#EF5F67"/>
    <path d="M0,14.429 L3.563,13.882 C7.141,13.335 14.266,12.242 21.406,12.039 C28.547,11.82 35.672,12.507 42.813,12.273 C49.953,12.039 57.078,10.883 64.25,10.008 C71.406,9.117 78.594,8.492 85.75,8.68 C92.922,8.852 100.047,9.851 107.188,9.508 C114.328,9.164 121.453,7.508 128.594,8.071 C135.734,8.649 142.859,11.461 146.438,12.866 L150,14.272 L150,27.863 L146.438,27.863 C142.859,27.863 135.734,27.863 128.594,27.863 C121.453,27.863 114.328,27.863 107.188,27.863 C100.047,27.863 92.922,27.863 85.75,27.863 C78.594,27.863 71.406,27.863 64.25,27.863 C57.078,27.863 49.953,27.863 42.813,27.863 C35.672,27.863 28.547,27.863 21.406,27.863 C14.266,27.863 7.141,27.863 3.563,27.863 L0,27.863 z" fill="#E34C67"/>
    <path d="M0,15.053 L3.563,14.632 C7.141,14.226 14.266,13.382 21.406,12.991 C28.547,12.601 35.672,12.663 42.813,13.382 C49.953,14.116 57.078,15.522 64.25,15.6 C71.406,15.678 78.594,14.429 85.75,13.648 C92.922,12.866 100.047,12.554 107.188,12.663 C114.328,12.757 121.453,13.288 128.594,13.679 C135.734,14.069 142.859,14.319 146.438,14.46 L150,14.585 L150,27.863 L146.438,27.863 C142.859,27.863 135.734,27.863 128.594,27.863 C121.453,27.863 114.328,27.863 107.188,27.863 C100.047,27.863 92.922,27.863 85.75,27.863 C78.594,27.863 71.406,27.863 64.25,27.863 C57.078,27.863 49.953,27.863 42.813,27.863 C35.672,27.863 28.547,27.863 21.406,27.863 C14.266,27.863 7.141,27.863 3.563,27.863 L0,27.863 z" fill="#D53867"/>
    <path d="M0,23.035 L3.563,21.975 C7.141,20.894 14.266,18.775 21.406,18.29 C28.547,17.804 35.672,18.996 42.813,19.239 C49.953,19.503 57.078,18.841 64.25,18.687 C71.406,18.554 78.594,18.908 85.75,19.239 C92.922,19.57 100.047,19.879 107.188,20.342 C114.328,20.828 121.453,21.49 128.594,21.313 C135.734,21.115 142.859,20.099 146.438,19.57 L150,19.062 L150,31.863 L146.438,31.863 C142.859,31.863 135.734,31.863 128.594,31.863 C121.453,31.863 114.328,31.863 107.188,31.863 C100.047,31.863 92.922,31.863 85.75,31.863 C78.594,31.863 71.406,31.863 64.25,31.863 C57.078,31.863 49.953,31.863 42.813,31.863 C35.672,31.863 28.547,31.863 21.406,31.863 C14.266,31.863 7.141,31.863 3.563,31.863 L0,31.863 z" fill="#C62368"/>
  </g>
</svg>
