<?xml version="1.0" encoding="UTF-8"?>
<!DOCTYPE svg PUBLIC "-//W3C//DTD SVG 1.1//EN" "http://www.w3.org/Graphics/SVG/1.1/DTD/svg11.dtd">
<svg version="1.1" xmlns="http://www.w3.org/2000/svg" xmlns:xlink="http://www.w3.org/1999/xlink" x="0" y="0" width="150" height="150" viewBox="0, 0, 150, 150">
  <g id="Layer_1">
    <path d="M71.206,21.91 C87.099,21.945 103.013,22.096 118.877,23.163 C123.816,23.496 129.391,23.654 134.177,25.089 C140.722,26.84 145.828,31.965 147.598,38.51 C152.227,57.182 151.925,92.485 147.695,111.449 C145.944,117.994 140.819,123.1 134.274,124.87 C115.796,129.441 33.034,128.877 15.626,124.87 C9.081,123.119 3.975,117.994 2.205,111.449 C-2.161,93.652 -1.86,56.015 2.108,38.607 C3.859,32.062 8.984,26.956 15.529,25.186 C33.887,22.08 52.641,22.131 71.206,21.91 z M60.265,52.241 L60.265,97.755 L99.944,74.998 L60.265,52.241 z" fill="#FFFFFF"/>
  </g>
</svg>
